<svg id="visual" viewBox="0 0 2400 1000" width="2400" height="1000" xmlns="http://www.w3.org/2000/svg" xmlns:xlink="http://www.w3.org/1999/xlink" version="1.1"><rect x="0" y="0" width="2400" height="1000" fill="#323637"></rect><defs><linearGradient id="grad1_0" x1="58.3%" y1="0%" x2="100%" y2="100%"><stop offset="2.0000000000000036%" stop-color="#323637" stop-opacity="1"></stop><stop offset="98%" stop-color="#323637" stop-opacity="1"></stop></linearGradient></defs><defs><linearGradient id="grad2_0" x1="0%" y1="0%" x2="41.7%" y2="100%"><stop offset="2.0000000000000036%" stop-color="#323637" stop-opacity="1"></stop><stop offset="98%" stop-color="#323637" stop-opacity="1"></stop></linearGradient></defs><g transform="translate(2400, 0)"><path d="M0 450C-85.7 442.2 -171.3 434.5 -225 389.7C-278.7 344.9 -300.4 263.1 -332.6 192C-364.7 120.9 -407.4 60.4 -450 0L0 0Z" fill="#e5826d"></path></g><g transform="translate(0, 1000)"><path d="M0 -450C91.3 -445.5 182.6 -441 225 -389.7C267.4 -338.4 260.8 -240.3 290.1 -167.5C319.5 -94.7 384.7 -47.4 450 0L0 0Z" fill="#e5826d"></path></g></svg>