<?xml version="1.0" encoding="utf-8"?>
<!-- Generator: Adobe Illustrator 24.0.2, SVG Export Plug-In . SVG Version: 6.00 Build 0)  -->
<svg version="1.1" id="Layer_1" xmlns="http://www.w3.org/2000/svg" xmlns:xlink="http://www.w3.org/1999/xlink" x="0px" y="0px"
	 viewBox="0 0 512 512" style="enable-background:new 0 0 512 512;" xml:space="preserve">
<style type="text/css">
	.st0{fill:#3C5A99;}
	.st1{fill:#A2B1CE;}
	.st2{fill:#E8ECF3;}
	.st3{fill:#A7B5D1;}
	.st4{fill-rule:evenodd;clip-rule:evenodd;fill:#FFFFFF;}
</style>
<ellipse transform="matrix(0.7071 -0.7071 0.7071 0.7071 -105.8243 255.8914)" class="st0" cx="255.9761" cy="255.6869" rx="251.2047" ry="251.2049"/>
<path class="st1" d="M250.8497,269.9361c-0.1672-1.2019-0.3338-2.4045-0.5029-3.6102c0.4854-7.3437-0.5875-14.9123,3.1761-21.7756
	c1.1869,1.0222,2.3725,2.0443,3.5576,3.0671c7.8623,6.4969,1.2652,14.9636,3.0364,22.2911
	c-1.0103,0.0551-2.0212,0.0883-3.0327,0.0989C255.006,269.9837,252.9279,269.9599,250.8497,269.9361z"/>
<path class="st2" d="M261.57,251.4719c-1.6466,4.0987-3.2939,8.198-4.9399,12.2974c-2.2078-4.3229-14.1588-8.6308-0.0182-12.9807
	C258.2648,251.0159,259.9177,251.2439,261.57,251.4719z"/>
<path class="st3" d="M251.1773,244.4776c2.0782,0.0238,4.1563,0.0476,6.2345,0.0714c1.0165,3.1911,2.0343,6.3823,3.0527,9.5728
	c-3.3929,2.2429-0.1497,4.2528,0.2242,6.3629c-1.0998,1.1042-2.199,2.2091-3.2989,3.3133c-2.6406,1.2927-3.151,3.6678-3.1911,6.2821
	C247.8533,262.1758,252.2915,252.9995,251.1773,244.4776z"/>
<path class="st4" d="M214.346,258.5319v153.8572c0,2.2135,1.7938,4.0079,4.0073,4.0079h57.1357
	c2.2134,0,4.0073-1.7944,4.0073-4.0079V256.0259h41.4217c2.0826,0,3.8175-1.5946,3.9935-3.6697l3.9834-47.1125
	c0.1979-2.3381-1.6466-4.3455-3.9935-4.3455h-45.4051v-33.4253c0-7.8341,6.351-14.1845,14.1845-14.1845h31.924
	c2.2134,0,4.0079-1.7944,4.0079-4.0079V102.168c0-2.2128-1.7944-4.0073-4.0079-4.0073H271.662
	c-31.6547,0-57.3161,25.6613-57.3161,57.3167v45.4208h-28.5681c-2.2135,0-4.0073,1.7944-4.0073,4.0079v47.1125
	c0,2.2128,1.7938,4.0073,4.0073,4.0073h28.5681V258.5319z"/>
</svg>
