<svg id="visual" viewBox="0 0 1024 600" width="1024" height="600" xmlns="http://www.w3.org/2000/svg" xmlns:xlink="http://www.w3.org/1999/xlink" version="1.1"><rect x="0" y="0" width="1024" height="600" fill="#e5826d"></rect><path d="M0 403L19 392.7C38 382.3 76 361.7 114 361.8C152 362 190 383 227.8 392.8C265.7 402.7 303.3 401.3 341.2 389.3C379 377.3 417 354.7 455 355.3C493 356 531 380 569 388.3C607 396.7 645 389.3 682.8 380C720.7 370.7 758.3 359.3 796.2 359C834 358.7 872 369.3 910 373.3C948 377.3 986 374.7 1005 373.3L1024 372L1024 601L1005 601C986 601 948 601 910 601C872 601 834 601 796.2 601C758.3 601 720.7 601 682.8 601C645 601 607 601 569 601C531 601 493 601 455 601C417 601 379 601 341.2 601C303.3 601 265.7 601 227.8 601C190 601 152 601 114 601C76 601 38 601 19 601L0 601Z" fill="#323637" stroke-linecap="round" stroke-linejoin="miter"></path></svg>