<?xml version="1.0" encoding="UTF-8" standalone="no"?> <svg id="Layer_1" data-name="Layer 1" xmlns="http://www.w3.org/2000/svg" viewBox="0 0 100 100"><defs><style>.cls-1{fill:#1d1d1b;}</style></defs><path class="cls-1" d="M50,16.24A23.06,23.06,0,1,0,73.06,39.31,23.1,23.1,0,0,0,50,16.24Zm0,43.22A20.16,20.16,0,1,1,70.16,39.31,20.18,20.18,0,0,1,50,59.46Z"/><path class="cls-1" d="M80.59,31.21h0a5.69,5.69,0,0,1-3.79-5.35,5.76,5.76,0,0,1,.56-2.45,8.36,8.36,0,0,0-.46-8.23A8.5,8.5,0,0,0,65.9,12a5.72,5.72,0,0,1-4.62.12A5.62,5.62,0,0,1,58.1,8.72a8.6,8.6,0,0,0-16.2,0A5.7,5.7,0,0,1,34.09,12a8.41,8.41,0,0,0-8.24.47,8.67,8.67,0,0,0-4.07,7.25,8.53,8.53,0,0,0,.87,3.72,5.87,5.87,0,0,1,.55,2.45,5.71,5.71,0,0,1-3.79,5.37,8.59,8.59,0,0,0,0,16.19,5.73,5.73,0,0,1,3.79,5.38,5.64,5.64,0,0,1-.55,2.42,8.38,8.38,0,0,0,.45,8.24,8.78,8.78,0,0,0,5.54,3.88L20.1,88.11a1.46,1.46,0,0,0,.25,1.52,1.48,1.48,0,0,0,1.47.44l10-2.72,5.16,8.92a1.44,1.44,0,0,0,1.26.73h.09a1.47,1.47,0,0,0,1.25-.9l8.52-20.72a8.52,8.52,0,0,0,2,.23,8.42,8.42,0,0,0,1.74-.18L60.23,96.1a1.47,1.47,0,0,0,1.25.9h.1a1.45,1.45,0,0,0,1.26-.73L68,87.35l10,2.72a1.46,1.46,0,0,0,1.73-2L71.14,67.36a8.69,8.69,0,0,0,7.07-8.43,8.39,8.39,0,0,0-.86-3.72,5.87,5.87,0,0,1-.56-2.44,5.72,5.72,0,0,1,3.8-5.37,8.59,8.59,0,0,0,0-16.19ZM38,92.26l-4.24-7.34a1.44,1.44,0,0,0-1.64-.67l-8.18,2.23L31.75,67.4a9.09,9.09,0,0,0,2.34-.74,5.9,5.9,0,0,1,2-.53,3.75,3.75,0,0,1,.48,0,5.69,5.69,0,0,1,5.35,3.79,8.42,8.42,0,0,0,3.47,4.39Zm37.89-5.78-8.17-2.23a1.46,1.46,0,0,0-1.65.67L61.8,92.26,54.46,74.39a8.45,8.45,0,0,0,3.63-4.49A5.77,5.77,0,0,1,59.19,68a5.68,5.68,0,0,1,4.27-1.93l.38,0a5.72,5.72,0,0,1,2.06.54,8.75,8.75,0,0,0,2.1.69Zm3.75-41.81a8.63,8.63,0,0,0-5.72,8.1,8.83,8.83,0,0,0,.84,3.7,5.58,5.58,0,0,1,.57,2.46,5.71,5.71,0,0,1-1.89,4.18,5.62,5.62,0,0,1-4.26,1.48,5.73,5.73,0,0,1-2-.56A8.63,8.63,0,0,0,57,66.11a9,9,0,0,0-1.65,2.81,5.54,5.54,0,0,1-3.26,3.41,6,6,0,0,1-4.34-.07,5.51,5.51,0,0,1-3.12-3.35,8.62,8.62,0,0,0-8.09-5.71,6.65,6.65,0,0,0-.81,0,8.87,8.87,0,0,0-2.88.79,6.09,6.09,0,0,1-2.25.58h-.23a5.76,5.76,0,0,1-4.81-2.72,5.52,5.52,0,0,1-.28-5.44,8.62,8.62,0,0,0-4.89-11.78,5.7,5.7,0,0,1,0-10.73,8.6,8.6,0,0,0,5.71-8.1,8.71,8.71,0,0,0-.83-3.69,5.59,5.59,0,0,1,2.14-7.28,5.56,5.56,0,0,1,5.43-.3,8.62,8.62,0,0,0,11.8-4.88,5.69,5.69,0,0,1,10.72,0,8.6,8.6,0,0,0,11.78,4.89,5.61,5.61,0,0,1,7.29,2.14,5.52,5.52,0,0,1,.29,5.44,8.74,8.74,0,0,0-.83,3.69,8.6,8.6,0,0,0,5.72,8.09,5.7,5.7,0,0,1,0,10.73Z"/><path class="cls-1" d="M51.3,22a1.45,1.45,0,0,0-2.6,0L44,31.64l-10.6,1.54a1.46,1.46,0,0,0-.81,2.48l7.67,7.48L38.41,53.69a1.45,1.45,0,0,0,2.11,1.53l9.48-5,9.48,5a1.45,1.45,0,0,0,2.1-1.53L59.77,43.14l7.67-7.48a1.44,1.44,0,0,0,.37-1.49,1.47,1.47,0,0,0-1.17-1L56,31.64Zm5.9,19.55a1.45,1.45,0,0,0-.42,1.28l1.44,8.41-7.55-4a1.46,1.46,0,0,0-1.35,0l-7.55,4,1.45-8.41a1.45,1.45,0,0,0-.42-1.28l-6.11-6,8.44-1.23a1.47,1.47,0,0,0,1.09-.79L50,26l3.77,7.65a1.47,1.47,0,0,0,1.1.79l8.43,1.23Z"/></svg>