<svg id="visual" viewBox="0 0 900 600" width="900" height="600" xmlns="http://www.w3.org/2000/svg" xmlns:xlink="http://www.w3.org/1999/xlink" version="1.1"><rect x="0" y="0" width="900" height="600" fill="#323637"></rect><defs><linearGradient id="grad1_0" x1="33.3%" y1="100%" x2="100%" y2="0%"><stop offset="20%" stop-color="#e5826d" stop-opacity="1"></stop><stop offset="80%" stop-color="#e5826d" stop-opacity="1"></stop></linearGradient></defs><defs><linearGradient id="grad1_1" x1="33.3%" y1="100%" x2="100%" y2="0%"><stop offset="20%" stop-color="#e5826d" stop-opacity="1"></stop><stop offset="80%" stop-color="#716086" stop-opacity="1"></stop></linearGradient></defs><defs><linearGradient id="grad1_2" x1="33.3%" y1="100%" x2="100%" y2="0%"><stop offset="20%" stop-color="#323637" stop-opacity="1"></stop><stop offset="80%" stop-color="#716086" stop-opacity="1"></stop></linearGradient></defs><defs><linearGradient id="grad2_0" x1="0%" y1="100%" x2="66.7%" y2="0%"><stop offset="20%" stop-color="#e5826d" stop-opacity="1"></stop><stop offset="80%" stop-color="#e5826d" stop-opacity="1"></stop></linearGradient></defs><defs><linearGradient id="grad2_1" x1="0%" y1="100%" x2="66.7%" y2="0%"><stop offset="20%" stop-color="#716086" stop-opacity="1"></stop><stop offset="80%" stop-color="#e5826d" stop-opacity="1"></stop></linearGradient></defs><defs><linearGradient id="grad2_2" x1="0%" y1="100%" x2="66.7%" y2="0%"><stop offset="20%" stop-color="#716086" stop-opacity="1"></stop><stop offset="80%" stop-color="#323637" stop-opacity="1"></stop></linearGradient></defs><g transform="translate(900, 600)"><path d="M-378.6 0C-361.2 -61.5 -343.7 -123 -314.4 -181.5C-285 -240 -243.7 -295.5 -189.3 -327.9C-134.9 -360.2 -67.5 -369.4 0 -378.6L0 0Z" fill="#3f4f61"></path><path d="M-252.4 0C-240.8 -41 -229.2 -82 -209.6 -121C-190 -160 -162.5 -197 -126.2 -218.6C-89.9 -240.1 -45 -246.3 0 -252.4L0 0Z" fill="#b66a89"></path><path d="M-126.2 0C-120.4 -20.5 -114.6 -41 -104.8 -60.5C-95 -80 -81.2 -98.5 -63.1 -109.3C-45 -120.1 -22.5 -123.1 0 -126.2L0 0Z" fill="#e5826d"></path></g><g transform="translate(0, 0)"><path d="M378.6 0C353.8 57.2 329 114.5 300.5 173.5C272.1 232.5 240 293.4 189.3 327.9C138.6 362.3 69.3 370.5 0 378.6L0 0Z" fill="#3f4f61"></path><path d="M252.4 0C235.8 38.2 219.3 76.3 200.3 115.7C181.4 155 160 195.6 126.2 218.6C92.4 241.6 46.2 247 0 252.4L0 0Z" fill="#b66a89"></path><path d="M126.2 0C117.9 19.1 109.7 38.2 100.2 57.8C90.7 77.5 80 97.8 63.1 109.3C46.2 120.8 23.1 123.5 0 126.2L0 0Z" fill="#e5826d"></path></g></svg>