<svg id="visual" viewBox="0 0 1280 500" width="1280" height="500" xmlns="http://www.w3.org/2000/svg" xmlns:xlink="http://www.w3.org/1999/xlink" version="1.1"><rect x="0" y="0" width="1280" height="500" fill="#323637"></rect><defs><linearGradient id="grad1_0" x1="60.9%" y1="100%" x2="100%" y2="0%"><stop offset="-1.1999999999999993%" stop-color="#323637" stop-opacity="1"></stop><stop offset="101.2%" stop-color="#323637" stop-opacity="1"></stop></linearGradient></defs><defs><linearGradient id="grad2_0" x1="0%" y1="100%" x2="39.1%" y2="0%"><stop offset="-1.1999999999999993%" stop-color="#323637" stop-opacity="1"></stop><stop offset="101.2%" stop-color="#323637" stop-opacity="1"></stop></linearGradient></defs><g transform="translate(1280, 500)"><path d="M-300 0C-267.9 -38.2 -235.8 -76.3 -214.8 -124C-193.8 -171.7 -183.9 -228.9 -150 -259.8C-116.1 -290.7 -58 -295.4 0 -300L0 0Z" fill="#e5826d"></path></g><g transform="translate(0, 0)"><path d="M300 0C268.8 38.7 237.6 77.4 216.5 125C195.4 172.6 184.4 229.2 150 259.8C115.6 290.5 57.8 295.2 0 300L0 0Z" fill="#e5826d"></path></g></svg>