<?xml version="1.0" encoding="utf-8"?>
<!-- Generator: Adobe Illustrator 24.0.2, SVG Export Plug-In . SVG Version: 6.00 Build 0)  -->
<svg version="1.1" id="Layer_1" xmlns="http://www.w3.org/2000/svg" xmlns:xlink="http://www.w3.org/1999/xlink" x="0px" y="0px"
	 viewBox="0 0 512 512" style="enable-background:new 0 0 512 512;" xml:space="preserve">
<style type="text/css">
	.st0{fill:#60FC7C;}
	.st1{fill-rule:evenodd;clip-rule:evenodd;fill:#FFFFFF;}
</style>
<ellipse transform="matrix(0.7071 -0.7071 0.7071 0.7071 -105.8241 255.8913)" class="st0" cx="255.9761" cy="255.6866" rx="251.205" ry="251.2049"/>
<g>
	<path class="st1" d="M255.9756,95.4125c-88.3764,0-160.274,71.8976-160.274,160.2733c0,31.0879,8.8256,60.9469,25.5987,86.8619
		L96.9536,396.179c-2.2441,4.9442-1.4268,10.7378,2.0957,14.8684c2.6989,3.1642,6.6122,4.9135,10.6495,4.9135
		c1.2332,0,2.4771-0.1628,3.7016-0.4992l67.0849-18.4053c23.1592,12.385,49.1312,18.9045,75.4902,18.9045
		c88.3757,0,160.2746-71.8989,160.2746-160.2752C416.2502,167.3101,344.3513,95.4125,255.9756,95.4125z M255.9756,387.9691
		c-23.4078,0-46.4398-6.2276-66.6058-18.0107c-2.1621-1.2627-4.6023-1.9103-7.0606-1.9103c-1.2414,0-2.4865,0.1654-3.7029,0.4986
		l-43.8249,12.0237l15.2643-33.6258c2.075-4.5722,1.5433-9.9041-1.3942-13.974c-16.3278-22.6318-24.958-49.3554-24.958-77.2847
		c0-72.9405,59.341-132.2814,132.282-132.2814c72.9417,0,132.2827,59.341,132.2827,132.2814
		C388.2583,328.6269,328.9173,387.9691,255.9756,387.9691z"/>
	<path class="st1" d="M317.5958,279.6874c-6.713-4.0148-15.4471-8.4974-23.3539-5.2624
		c-6.0654,2.4828-9.9392,11.9785-13.8682,16.8282c-2.0193,2.4884-4.4256,2.8774-7.5235,1.6303
		c-22.7715-9.0705-40.2223-24.2728-52.7877-45.2178c-2.1283-3.2563-1.7468-5.8224,0.8186-8.8407
		c3.7981-4.4682,8.5632-9.5434,9.5904-15.5687c1.0266-6.0228-1.7982-13.0646-4.2885-18.4279
		c-3.1817-6.8533-6.7393-16.6272-13.6026-20.5035c-6.314-3.5657-14.6248-1.5696-20.2474,3.0089
		c-9.7043,7.903-14.3868,20.2843-14.2465,32.5591c0.0401,3.4874,0.4691,6.966,1.2827,10.3313
		c1.9585,8.0966,5.6996,15.6551,9.911,22.8429c3.1749,5.4184,6.6253,10.677,10.3482,15.7347
		c12.1802,16.5464,27.3336,30.925,44.8784,41.671c8.7667,5.3689,18.2099,10.0782,27.9875,13.3089
		c10.9664,3.6227,20.7372,7.3951,32.5785,5.1459c12.3982-2.3544,24.6204-10.0269,29.5408-21.9754
		c1.4562-3.5363,2.1871-7.4765,1.3717-11.2126C334.3,288.0157,323.8434,283.4234,317.5958,279.6874z"/>
</g>
</svg>
